<?xml version="1.0" standalone="no"?>
<!DOCTYPE svg PUBLIC "-//W3C//DTD SVG 20010904//EN"
 "http://www.w3.org/TR/2001/REC-SVG-20010904/DTD/svg10.dtd">
<svg version="1.0" xmlns="http://www.w3.org/2000/svg"
 width="202.000000pt" height="224.000000pt" viewBox="0 0 202.000000 224.000000"
 preserveAspectRatio="xMidYMid meet">
<metadata>
Created by potrace 1.15, written by Peter Selinger 2001-2017
</metadata>
<g transform="translate(0.000000,224.000000) scale(0.100000,-0.100000)"
fill="#000000" stroke="none">
<path d="M921 1611 c-44 -44 -40 -101 14 -159 30 -33 39 -37 83 -37 104 0 138
88 64 167 -33 35 -46 41 -89 45 -42 4 -54 2 -72 -16z"/>
<path d="M537 1583 c-13 -13 -6 -34 27 -80 130 -184 180 -414 127 -584 -23
-74 -80 -165 -135 -218 -61 -59 -43 -85 32 -47 206 104 552 169 779 146 71 -7
109 -8 116 -1 15 15 -6 36 -51 49 -52 16 -125 82 -151 135 -28 57 -28 148 0
222 23 62 95 147 158 185 24 15 41 33 41 44 0 22 -6 21 -135 -25 -79 -28 -106
-33 -220 -37 -98 -3 -147 0 -200 12 -94 22 -216 83 -303 150 -78 61 -76 59
-85 49z"/>
</g>
</svg>
