<?xml version="1.0" encoding="UTF-8" standalone="no"?>
<!DOCTYPE svg PUBLIC "-//W3C//DTD SVG 1.1//EN"
 "http://www.w3.org/Graphics/SVG/1.1/DTD/svg11.dtd">
<!-- Generated by graphviz version 2.40.1 (20161225.0304)
 -->
<!-- Title: controllers_diagram Pages: 1 -->
<svg width="384pt" height="385pt"
 viewBox="0.00 0.00 384.00 385.00" xmlns="http://www.w3.org/2000/svg" xmlns:xlink="http://www.w3.org/1999/xlink">
<g id="graph0" class="graph" transform="scale(1 1) rotate(0) translate(4 381)">
<title>controllers_diagram</title>
<polygon fill="transparent" stroke="transparent" points="-4,4 -4,-381 380,-381 380,4 -4,4"/>
<!-- _diagram_info -->
<g id="node1" class="node">
<title>_diagram_info</title>
<text text-anchor="start" x="8" y="-143.6" font-family="Times,serif" font-size="13.00" fill="#000000">Controllers diagram</text>
<text text-anchor="start" x="8" y="-129.6" font-family="Times,serif" font-size="13.00" fill="#000000">Date: Apr 20 2020 &#45; 09:30</text>
<text text-anchor="start" x="8" y="-115.6" font-family="Times,serif" font-size="13.00" fill="#000000">Migration version: 20200330170508</text>
<text text-anchor="start" x="8" y="-101.6" font-family="Times,serif" font-size="13.00" fill="#000000">Generated by RailRoady 1.5.3</text>
<text text-anchor="start" x="8" y="-87.6" font-family="Times,serif" font-size="13.00" fill="#000000">http://railroady.prestonlee.com</text>
</g>
<!-- QuestionsController -->
<g id="node2" class="node">
<title>QuestionsController</title>
<path fill="none" stroke="#000000" d="M188,-192.5C188,-192.5 290,-192.5 290,-192.5 296,-192.5 302,-198.5 302,-204.5 302,-204.5 302,-348.5 302,-348.5 302,-354.5 296,-360.5 290,-360.5 290,-360.5 188,-360.5 188,-360.5 182,-360.5 176,-354.5 176,-348.5 176,-348.5 176,-204.5 176,-204.5 176,-198.5 182,-192.5 188,-192.5"/>
<text text-anchor="middle" x="239" y="-345.3" font-family="Times,serif" font-size="14.00" fill="#000000">QuestionsController</text>
<polyline fill="none" stroke="#000000" points="176,-337.5 302,-337.5 "/>
<text text-anchor="start" x="184" y="-322.3" font-family="Times,serif" font-size="14.00" fill="#000000">create</text>
<text text-anchor="start" x="184" y="-307.3" font-family="Times,serif" font-size="14.00" fill="#000000">destroy</text>
<text text-anchor="start" x="184" y="-292.3" font-family="Times,serif" font-size="14.00" fill="#000000">index</text>
<text text-anchor="start" x="184" y="-277.3" font-family="Times,serif" font-size="14.00" fill="#000000">show</text>
<text text-anchor="start" x="184" y="-262.3" font-family="Times,serif" font-size="14.00" fill="#000000">update</text>
<polyline fill="none" stroke="#000000" points="176,-254.5 302,-254.5 "/>
<polyline fill="none" stroke="#000000" points="176,-230.5 302,-230.5 "/>
<text text-anchor="start" x="184" y="-215.3" font-family="Times,serif" font-size="14.00" fill="#000000">question_params</text>
<text text-anchor="start" x="184" y="-200.3" font-family="Times,serif" font-size="14.00" fill="#000000">set_question</text>
</g>
<!-- CulturesController -->
<g id="node3" class="node">
<title>CulturesController</title>
<path fill="none" stroke="#000000" d="M44,-208.5C44,-208.5 138,-208.5 138,-208.5 144,-208.5 150,-214.5 150,-220.5 150,-220.5 150,-364.5 150,-364.5 150,-370.5 144,-376.5 138,-376.5 138,-376.5 44,-376.5 44,-376.5 38,-376.5 32,-370.5 32,-364.5 32,-364.5 32,-220.5 32,-220.5 32,-214.5 38,-208.5 44,-208.5"/>
<text text-anchor="middle" x="91" y="-361.3" font-family="Times,serif" font-size="14.00" fill="#000000">CulturesController</text>
<polyline fill="none" stroke="#000000" points="32,-353.5 150,-353.5 "/>
<text text-anchor="start" x="40" y="-338.3" font-family="Times,serif" font-size="14.00" fill="#000000">create</text>
<text text-anchor="start" x="40" y="-323.3" font-family="Times,serif" font-size="14.00" fill="#000000">destroy</text>
<text text-anchor="start" x="40" y="-308.3" font-family="Times,serif" font-size="14.00" fill="#000000">index</text>
<text text-anchor="start" x="40" y="-293.3" font-family="Times,serif" font-size="14.00" fill="#000000">show</text>
<text text-anchor="start" x="40" y="-278.3" font-family="Times,serif" font-size="14.00" fill="#000000">update</text>
<polyline fill="none" stroke="#000000" points="32,-270.5 150,-270.5 "/>
<polyline fill="none" stroke="#000000" points="32,-246.5 150,-246.5 "/>
<text text-anchor="start" x="40" y="-231.3" font-family="Times,serif" font-size="14.00" fill="#000000">culture_params</text>
<text text-anchor="start" x="40" y="-216.3" font-family="Times,serif" font-size="14.00" fill="#000000">set_culture</text>
</g>
<!-- ApplicationController -->
<g id="node4" class="node">
<title>ApplicationController</title>
<path fill="none" stroke="#000000" d="M252,-.5C252,-.5 364,-.5 364,-.5 370,-.5 376,-6.5 376,-12.5 376,-12.5 376,-83.5 376,-83.5 376,-89.5 370,-95.5 364,-95.5 364,-95.5 252,-95.5 252,-95.5 246,-95.5 240,-89.5 240,-83.5 240,-83.5 240,-12.5 240,-12.5 240,-6.5 246,-.5 252,-.5"/>
<text text-anchor="middle" x="308" y="-80.3" font-family="Times,serif" font-size="14.00" fill="#000000">ApplicationController</text>
<polyline fill="none" stroke="#000000" points="240,-72.5 376,-72.5 "/>
<polyline fill="none" stroke="#000000" points="240,-48.5 376,-48.5 "/>
<polyline fill="none" stroke="#000000" points="240,-24.5 376,-24.5 "/>
</g>
</g>
</svg>
