<?xml version="1.0" encoding="UTF-8" standalone="no"?>
<!DOCTYPE svg PUBLIC "-//W3C//DTD SVG 1.1//EN"
 "http://www.w3.org/Graphics/SVG/1.1/DTD/svg11.dtd">
<!-- Generated by graphviz version 2.40.1 (20161225.0304)
 -->
<!-- Title: models_diagram Pages: 1 -->
<svg width="672pt" height="288pt"
 viewBox="0.00 0.00 672.00 288.00" xmlns="http://www.w3.org/2000/svg" xmlns:xlink="http://www.w3.org/1999/xlink">
<g id="graph0" class="graph" transform="scale(1 1) rotate(0) translate(4 284)">
<title>models_diagram</title>
<polygon fill="transparent" stroke="transparent" points="-4,4 -4,-284 668,-284 668,4 -4,4"/>
<!-- _diagram_info -->
<g id="node1" class="node">
<title>_diagram_info</title>
<text text-anchor="start" x="8" y="-258.6" font-family="Times,serif" font-size="13.00" fill="#000000">Models diagram</text>
<text text-anchor="start" x="8" y="-244.6" font-family="Times,serif" font-size="13.00" fill="#000000">Date: Apr 20 2020 &#45; 09:30</text>
<text text-anchor="start" x="8" y="-230.6" font-family="Times,serif" font-size="13.00" fill="#000000">Migration version: 20200330170508</text>
<text text-anchor="start" x="8" y="-216.6" font-family="Times,serif" font-size="13.00" fill="#000000">Generated by RailRoady 1.5.3</text>
<text text-anchor="start" x="8" y="-202.6" font-family="Times,serif" font-size="13.00" fill="#000000">http://railroady.prestonlee.com</text>
</g>
<!-- ApplicationRecord -->
<g id="node2" class="node">
<title>ApplicationRecord</title>
<ellipse fill="none" stroke="#000000" cx="309" cy="-234" rx="77.1866" ry="18"/>
<text text-anchor="middle" x="309" y="-230.3" font-family="Times,serif" font-size="14.00" fill="#000000">ApplicationRecord</text>
</g>
<!-- Question -->
<g id="node3" class="node">
<title>Question</title>
<path fill="none" stroke="#000000" d="M416,-.5C416,-.5 652,-.5 652,-.5 658,-.5 664,-6.5 664,-12.5 664,-12.5 664,-139.5 664,-139.5 664,-145.5 658,-151.5 652,-151.5 652,-151.5 416,-151.5 416,-151.5 410,-151.5 404,-145.5 404,-139.5 404,-139.5 404,-12.5 404,-12.5 404,-6.5 410,-.5 416,-.5"/>
<text text-anchor="middle" x="534" y="-136.3" font-family="Times,serif" font-size="14.00" fill="#000000">Question</text>
<polyline fill="none" stroke="#000000" points="404,-128.5 664,-128.5 "/>
<text text-anchor="start" x="412" y="-113.3" font-family="Times,serif" font-size="14.00" fill="#000000">id :bigint</text>
<text text-anchor="start" x="412" y="-98.3" font-family="Times,serif" font-size="14.00" fill="#000000">value :character varying</text>
<text text-anchor="start" x="412" y="-83.3" font-family="Times,serif" font-size="14.00" fill="#000000">answer :character varying</text>
<text text-anchor="start" x="412" y="-68.3" font-family="Times,serif" font-size="14.00" fill="#000000">text_answer :character varying</text>
<text text-anchor="start" x="412" y="-53.3" font-family="Times,serif" font-size="14.00" fill="#000000">created_at :timestamp(6) without time zone</text>
<text text-anchor="start" x="412" y="-38.3" font-family="Times,serif" font-size="14.00" fill="#000000">updated_at :timestamp(6) without time zone</text>
<text text-anchor="start" x="412" y="-23.3" font-family="Times,serif" font-size="14.00" fill="#000000">culture_id :integer</text>
<text text-anchor="start" x="412" y="-8.3" font-family="Times,serif" font-size="14.00" fill="#000000">videotype :character varying</text>
</g>
<!-- Culture -->
<g id="node4" class="node">
<title>Culture</title>
<path fill="none" stroke="#000000" d="M416,-188.5C416,-188.5 652,-188.5 652,-188.5 658,-188.5 664,-194.5 664,-200.5 664,-200.5 664,-267.5 664,-267.5 664,-273.5 658,-279.5 652,-279.5 652,-279.5 416,-279.5 416,-279.5 410,-279.5 404,-273.5 404,-267.5 404,-267.5 404,-200.5 404,-200.5 404,-194.5 410,-188.5 416,-188.5"/>
<text text-anchor="middle" x="534" y="-264.3" font-family="Times,serif" font-size="14.00" fill="#000000">Culture</text>
<polyline fill="none" stroke="#000000" points="404,-256.5 664,-256.5 "/>
<text text-anchor="start" x="412" y="-241.3" font-family="Times,serif" font-size="14.00" fill="#000000">id :bigint</text>
<text text-anchor="start" x="412" y="-226.3" font-family="Times,serif" font-size="14.00" fill="#000000">name :character varying</text>
<text text-anchor="start" x="412" y="-211.3" font-family="Times,serif" font-size="14.00" fill="#000000">created_at :timestamp(6) without time zone</text>
<text text-anchor="start" x="412" y="-196.3" font-family="Times,serif" font-size="14.00" fill="#000000">updated_at :timestamp(6) without time zone</text>
</g>
<!-- Culture&#45;&gt;Question -->
<g id="edge1" class="edge">
<title>Culture&#45;&gt;Question</title>
<path fill="none" stroke="#da49ef" d="M534,-180.0523C534,-174.1897 534,-168.1217 534,-161.9972"/>
<ellipse fill="none" stroke="#da49ef" cx="534" cy="-184.2999" rx="4" ry="4"/>
<polygon fill="#da49ef" stroke="#da49ef" points="534.0001,-161.663 538.5,-151.663 534,-156.663 534,-151.663 534,-151.663 534,-151.663 534,-156.663 529.5,-151.6631 534.0001,-161.663 534.0001,-161.663"/>
</g>
</g>
</svg>
